Dinish-Bold.ufo
<glyph name="parenleft" format="2">
  <advance width="317"/>
  <unicode hex="0028"/>
  <outline>
    <contour>
      <point x="46" y="336" type="curve" smooth="yes"/>
      <point x="46" y="490.187"/>
      <point x="91.0166" y="631.489"/>
      <point x="179" y="758" type="curve"/>
      <point x="271" y="758" type="line"/>
      <point x="205.786" y="629.506"/>
      <point x="172" y="479.842"/>
      <point x="172" y="336" type="curve" smooth="yes"/>
      <point x="172" y="193.664"/>
      <point x="208.129" y="41.7354"/>
      <point x="271" y="-86" type="curve"/>
      <point x="178" y="-86" type="line"/>
      <point x="92.2006" y="40.7252"/>
      <point x="46" y="182.625"/>
    </contour>
  </outline>
</glyph>
<glyph name="two" format="2">
  <advance width="504"/>
  <unicode hex="0032"/>
  <outline>
    <contour>
      <point x="49" y="106" type="line"/>
      <point x="284" y="411" type="line" smooth="yes"/>
      <point x="310.846" y="445.843"/>
      <point x="323" y="478.605"/>
      <point x="323" y="516.128" type="curve" smooth="yes"/>
      <point x="323" y="572.395"/>
      <point x="295.961" y="604"/>
      <point x="247.822" y="604" type="curve" smooth="yes"/>
      <point x="199.188" y="604"/>
      <point x="175.765" y="571.062"/>
      <point x="176" y="503" type="curve"/>
      <point x="46" y="503" type="line"/>
      <point x="46" y="527" type="line" smooth="yes"/>
      <point x="46" y="641.687"/>
      <point x="129.717" y="718"/>
      <point x="253.974" y="718" type="curve" smooth="yes"/>
      <point x="379.477" y="718"/>
      <point x="459" y="640.149"/>
      <point x="459" y="518.811" type="curve" smooth="yes"/>
      <point x="459" y="457.892"/>
      <point x="438.689" y="403.893"/>
      <point x="394" y="346" type="curve" smooth="yes"/>
      <point x="218" y="118" type="line"/>
      <point x="459" y="118" type="line"/>
      <point x="459" y="0" type="line"/>
      <point x="49" y="0" type="line"/>
    </contour>
  </outline>
</glyph>
<glyph name="five" format="2">
  <advance width="508"/>
  <unicode hex="0035"/>
  <outline>
    <contour>
      <point x="51" y="178" type="curve"/>
      <point x="174" y="178" type="line"/>
      <point x="173.31" y="129.216"/>
      <point x="203.064" y="102"/>
      <point x="251" y="102" type="curve" smooth="yes"/>
      <point x="326.784" y="102"/>
      <point x="328.433" y="170.198"/>
      <point x="328.433" y="227.806" type="curve" smooth="yes"/>
      <point x="328.433" y="286.968"/>
      <point x="327.109" y="352"/>
      <point x="250" y="352" type="curve" smooth="yes"/>
      <point x="217.018" y="352"/>
      <point x="189.933" y="334.443"/>
      <point x="177" y="304" type="curve"/>
      <point x="61" y="304" type="line"/>
      <point x="61" y="707" type="line"/>
      <point x="443" y="707" type="line"/>
      <point x="443" y="592" type="line"/>
      <point x="177" y="592" type="line"/>
      <point x="177" y="432" type="line"/>
      <point x="205.309" y="454.875"/>
      <point x="241.994" y="465"/>
      <point x="278" y="465" type="curve" smooth="yes"/>
      <point x="404.656" y="465"/>
      <point x="458" y="378.624"/>
      <point x="458" y="261" type="curve" smooth="yes"/>
      <point x="458" y="195" type="line" smooth="yes"/>
      <point x="458" y="65.3487"/>
      <point x="380.282" y="-11"/>
      <point x="251" y="-11" type="curve" smooth="yes"/>
      <point x="126.73" y="-11"/>
      <point x="50.7099" y="49.2103"/>
    </contour>
  </outline>
</glyph>
<glyph name="semicolon" format="2">
  <advance width="220"/>
  <unicode hex="003B"/>
  <outline>
    <contour>
      <point x="39" y="492" type="line"/>
      <point x="181" y="492" type="line"/>
      <point x="181" y="346" type="line"/>
      <point x="39" y="346" type="line"/>
    </contour>
    <contour>
      <point x="59" y="140" type="line"/>
      <point x="179" y="140" type="line"/>
      <point x="179" y="-65" type="line"/>
      <point x="59" y="-166" type="line"/>
    </contour>
  </outline>
</glyph>
<glyph name="C" format="2">
  <advance width="613"/>
  <unicode hex="0043"/>
  <anchor x="303" y="707" name="top"/>
  <outline>
    <contour>
      <point x="51" y="273" type="curve" smooth="yes"/>
      <point x="51" y="435" type="line" smooth="yes"/>
      <point x="51" y="609.164"/>
      <point x="126.586" y="717"/>
      <point x="310" y="717" type="curve" smooth="yes"/>
      <point x="463.933" y="717"/>
      <point x="563.725" y="633.519"/>
      <point x="563" y="475" type="curve"/>
      <point x="429" y="475" type="line"/>
      <point x="429" y="551.982"/>
      <point x="386.428" y="599"/>
      <point x="309" y="599" type="curve" smooth="yes"/>
      <point x="204.44" y="599"/>
      <point x="186" y="514.253"/>
      <point x="186" y="428" type="curve" smooth="yes"/>
      <point x="186" y="275" type="line" smooth="yes"/>
      <point x="186" y="188.633"/>
      <point x="209.924" y="112"/>
      <point x="311" y="112" type="curve" smooth="yes"/>
      <point x="389.792" y="112"/>
      <point x="429" y="155.868"/>
      <point x="429" y="234" type="curve"/>
      <point x="561" y="234" type="line"/>
      <point x="561" y="227" type="line" smooth="yes"/>
      <point x="561" y="69.4617"/>
      <point x="458.793" y="-8"/>
      <point x="308" y="-8" type="curve" smooth="yes"/>
      <point x="125.476" y="-8"/>
      <point x="51" y="100.118"/>
    </contour>
  </outline>
  <guideline angle="90" name="vertical" x="303" y="0"/>
  <guideline angle="0" name="horizontal" x="0" y="707"/>
</glyph>
<glyph name="D" format="2">
  <advance width="614"/>
  <unicode hex="0044"/>
  <anchor x="274" y="707" name="top"/>
  <outline>
    <contour>
      <point x="60" y="707" type="line"/>
      <point x="309" y="707" type="line" smooth="yes"/>
      <point x="490.78" y="707"/>
      <point x="563" y="596.937"/>
      <point x="563" y="426" type="curve" smooth="yes"/>
      <point x="563" y="282" type="line" smooth="yes"/>
      <point x="563" y="108.424"/>
      <point x="488.25" y="0"/>
      <point x="305" y="0" type="curve" smooth="yes"/>
      <point x="60" y="0" type="line"/>
    </contour>
    <contour>
      <point x="308" y="117" type="line" smooth="yes"/>
      <point x="408.451" y="117"/>
      <point x="429" y="199.371"/>
      <point x="429" y="283" type="curve" smooth="yes"/>
      <point x="429" y="419" type="line" smooth="yes"/>
      <point x="429" y="502.864"/>
      <point x="410.264" y="590"/>
      <point x="308" y="590" type="curve" smooth="yes"/>
      <point x="195" y="590" type="line"/>
      <point x="195" y="117" type="line"/>
    </contour>
  </outline>
  <guideline angle="90" name="vertical" x="274" y="0"/>
  <guideline angle="0" name="horizontal" x="0" y="707"/>
</glyph>
<glyph name="J" format="2">
  <advance width="338"/>
  <unicode hex="004A"/>
  <anchor x="204" y="707" name="top"/>
  <outline>
    <contour>
      <point x="25" y="118" type="line"/>
      <point x="88.9903" y="118"/>
      <point x="137" y="104.65"/>
      <point x="137" y="184" type="curve" smooth="yes"/>
      <point x="137" y="707" type="line"/>
      <point x="272" y="707" type="line"/>
      <point x="272" y="162" type="line" smooth="yes"/>
      <point x="272" y="58.9759"/>
      <point x="214.732" y="0"/>
      <point x="111" y="0" type="curve" smooth="yes"/>
      <point x="25" y="0" type="line"/>
    </contour>
  </outline>
  <guideline angle="90" name="vertical" x="204" y="0"/>
  <guideline angle="0" name="horizontal" x="0" y="707"/>
</glyph>
<glyph name="a" format="2">
  <advance width="513"/>
  <unicode hex="0061"/>
  <anchor x="260" y="532" name="top"/>
  <outline>
    <contour>
      <point x="458" y="350" type="curve" smooth="yes"/>
      <point x="458" y="0" type="line"/>
      <point x="335" y="0" type="line"/>
      <point x="335" y="46" type="line"/>
      <point x="301.544" y="11.312"/>
      <point x="256.916" y="-6"/>
      <point x="209" y="-6" type="curve" smooth="yes"/>
      <point x="105.775" y="-6"/>
      <point x="37" y="54.6119"/>
      <point x="37" y="160" type="curve" smooth="yes"/>
      <point x="37" y="281.883"/>
      <point x="138.916" y="316.126"/>
      <point x="242.93" y="316.126" type="curve" smooth="yes"/>
      <point x="272.633" y="316.126"/>
      <point x="302.309" y="314.615"/>
      <point x="332" y="314" type="curve"/>
      <point x="332" y="356" type="line" smooth="yes"/>
      <point x="332" y="411.062"/>
      <point x="302.062" y="441"/>
      <point x="247" y="441" type="curve" smooth="yes"/>
      <point x="206.709" y="441"/>
      <point x="169" y="417.626"/>
      <point x="169" y="373" type="curve"/>
      <point x="51" y="373" type="line"/>
      <point x="51" y="377" type="line" smooth="yes"/>
      <point x="51" y="489.33"/>
      <point x="147.381" y="539"/>
      <point x="248" y="539" type="curve" smooth="yes"/>
      <point x="370.484" y="539"/>
      <point x="458" y="480.348"/>
    </contour>
    <contour>
      <point x="332" y="189" type="curve" smooth="yes"/>
      <point x="332" y="227" type="line"/>
      <point x="240" y="227" type="line" smooth="yes"/>
      <point x="198.299" y="227"/>
      <point x="160" y="210.414"/>
      <point x="160" y="163" type="curve" smooth="yes"/>
      <point x="160" y="115.436"/>
      <point x="194.485" y="96"/>
      <point x="238" y="96" type="curve" smooth="yes"/>
      <point x="299.912" y="96"/>
      <point x="332" y="126.682"/>
    </contour>
  </outline>
  <guideline angle="90" name="vertical" x="260" y="0"/>
  <guideline angle="0" name="horizontal" x="0" y="532"/>
</glyph>
<glyph name="g" format="2">
  <advance width="526"/>
  <unicode hex="0067"/>
  <anchor x="260" y="532" name="top"/>
  <outline>
    <contour>
      <point x="53" y="-13" type="curve"/>
      <point x="175" y="-13" type="line"/>
      <point x="182.412" y="-52.6826"/>
      <point x="224.049" y="-68"/>
      <point x="260" y="-68" type="curve" smooth="yes"/>
      <point x="335.953" y="-68"/>
      <point x="347.546" y="-13.2746"/>
      <point x="347.546" y="50.1212" type="curve" smooth="yes"/>
      <point x="347" y="96" type="line"/>
      <point x="317.029" y="57.9158"/>
      <point x="269.365" y="41"/>
      <point x="222" y="41" type="curve" smooth="yes"/>
      <point x="94.8462" y="41"/>
      <point x="46" y="148.955"/>
      <point x="46" y="261" type="curve" smooth="yes"/>
      <point x="46" y="319" type="line" smooth="yes"/>
      <point x="46" y="431.125"/>
      <point x="93.3074" y="539"/>
      <point x="221" y="539" type="curve" smooth="yes"/>
      <point x="269.584" y="539"/>
      <point x="316.252" y="517.754"/>
      <point x="345" y="478" type="curve"/>
      <point x="345" y="532" type="line"/>
      <point x="471" y="532" type="line"/>
      <point x="471" y="39" type="line" smooth="yes"/>
      <point x="471" y="-92.7747"/>
      <point x="383.548" y="-168"/>
      <point x="255" y="-168" type="curve" smooth="yes"/>
      <point x="154.481" y="-168"/>
      <point x="59.4092" y="-125.365"/>
    </contour>
    <contour>
      <point x="345" y="265" type="curve" smooth="yes"/>
      <point x="345" y="314" type="line" smooth="yes"/>
      <point x="345" y="369.615"/>
      <point x="322.111" y="426"/>
      <point x="258" y="426" type="curve" smooth="yes"/>
      <point x="190.798" y="426"/>
      <point x="173" y="371.286"/>
      <point x="173" y="314" type="curve" smooth="yes"/>
      <point x="173" y="265" type="line" smooth="yes"/>
      <point x="173" y="209.476"/>
      <point x="188.907" y="154"/>
      <point x="255" y="154" type="curve" smooth="yes"/>
      <point x="322.775" y="154"/>
      <point x="345" y="205.074"/>
    </contour>
  </outline>
  <guideline angle="90" name="vertical" x="260" y="0"/>
  <guideline angle="0" name="horizontal" x="0" y="532"/>
</glyph>
<glyph name="k" format="2">
  <advance width="532"/>
  <unicode hex="006B"/>
  <anchor x="119" y="707" name="top"/>
  <outline>
    <contour>
      <point x="239" y="223" type="line"/>
      <point x="182" y="158" type="line"/>
      <point x="182" y="0" type="line"/>
      <point x="55" y="0" type="line"/>
      <point x="55" y="707" type="line"/>
      <point x="182" y="707" type="line"/>
      <point x="182" y="311" type="line"/>
      <point x="354" y="532" type="line"/>
      <point x="505" y="532" type="line"/>
      <point x="323" y="321" type="line"/>
      <point x="518" y="0" type="line"/>
      <point x="365" y="0" type="line"/>
    </contour>
  </outline>
  <guideline angle="90" name="vertical" x="119" y="0"/>
  <guideline angle="0" name="horizontal" x="0" y="707"/>
</glyph>
<glyph name="r" format="2">
  <advance width="366"/>
  <unicode hex="0072"/>
  <anchor x="199" y="532" name="top"/>
  <outline>
    <contour>
      <point x="55" y="532" type="line"/>
      <point x="179" y="532" type="line"/>
      <point x="179" y="477" type="line"/>
      <point x="204.404" y="521.932"/>
      <point x="254.806" y="544"/>
      <point x="305" y="544" type="curve" smooth="yes"/>
      <point x="319.418" y="544"/>
      <point x="333.89" y="543.125"/>
      <point x="348" y="540" type="curve"/>
      <point x="348" y="421" type="line"/>
      <point x="327.728" y="427.802"/>
      <point x="306.432" y="432"/>
      <point x="285" y="432" type="curve" smooth="yes"/>
      <point x="216.059" y="432"/>
      <point x="182" y="384.308"/>
      <point x="182" y="319" type="curve" smooth="yes"/>
      <point x="182" y="0" type="line"/>
      <point x="55" y="0" type="line"/>
    </contour>
  </outline>
  <guideline angle="90" name="vertical" x="199" y="0"/>
  <guideline angle="0" name="horizontal" x="0" y="532"/>
</glyph>
<glyph name="t" format="2">
  <advance width="360"/>
  <unicode hex="0074"/>
  <anchor x="162" y="681" name="top"/>
  <outline>
    <contour>
      <point x="225" y="443" type="line"/>
      <point x="225" y="162" type="line" smooth="yes"/>
      <point x="225" y="111.141"/>
      <point x="272.573" y="107.031"/>
      <point x="317" y="108" type="curve"/>
      <point x="317" y="0" type="line"/>
      <point x="257" y="0" type="line" smooth="yes"/>
      <point x="162.396" y="0"/>
      <point x="99" y="57.9804"/>
      <point x="99" y="154" type="curve" smooth="yes"/>
      <point x="99" y="443" type="line"/>
      <point x="26" y="443" type="line"/>
      <point x="26" y="532" type="line"/>
      <point x="99" y="532" type="line"/>
      <point x="99" y="637" type="line"/>
      <point x="225" y="681" type="line"/>
      <point x="225" y="532" type="line"/>
      <point x="328" y="532" type="line"/>
      <point x="328" y="443" type="line"/>
    </contour>
  </outline>
  <guideline angle="90" name="vertical" x="162" y="0"/>
  <guideline angle="0" name="horizontal" x="0" y="681"/>
</glyph>
<glyph name="braceright" format="2">
  <advance width="368"/>
  <unicode hex="007D"/>
  <outline>
    <contour>
      <point x="46" y="16" type="line"/>
      <point x="84.5945" y="16"/>
      <point x="126" y="8.64571"/>
      <point x="126" y="61" type="curve" smooth="yes"/>
      <point x="126" y="208" type="line" smooth="yes"/>
      <point x="126" y="270.912"/>
      <point x="134.676" y="314.221"/>
      <point x="199" y="338" type="curve"/>
      <point x="134.109" y="359.59"/>
      <point x="126" y="406.293"/>
      <point x="126" y="468" type="curve" smooth="yes"/>
      <point x="126" y="610" type="line" smooth="yes"/>
      <point x="126" y="662.354"/>
      <point x="84.5945" y="655"/>
      <point x="46" y="655" type="curve"/>
      <point x="46" y="758" type="line"/>
      <point x="119" y="758" type="line" smooth="yes"/>
      <point x="199.575" y="758"/>
      <point x="245" y="714.206"/>
      <point x="245" y="633" type="curve" smooth="yes"/>
      <point x="245" y="474" type="line" smooth="yes"/>
      <point x="245" y="419.47"/>
      <point x="266.273" y="391.951"/>
      <point x="323" y="392" type="curve"/>
      <point x="323" y="284" type="line"/>
      <point x="266.273" y="284.049"/>
      <point x="245" y="256.53"/>
      <point x="245" y="202" type="curve" smooth="yes"/>
      <point x="245" y="40" type="line" smooth="yes"/>
      <point x="245" y="-41.7039"/>
      <point x="200.443" y="-86"/>
      <point x="119" y="-86" type="curve" smooth="yes"/>
      <point x="46" y="-86" type="line"/>
    </contour>
  </outline>
</glyph>
<glyph name="asciitilde" format="2">
  <advance width="541"/>
  <unicode hex="007E"/>
  <outline>
    <contour>
      <point x="191" y="258" type="curve" smooth="yes"/>
      <point x="154.842" y="258"/>
      <point x="137.461" y="229.141"/>
      <point x="122" y="201" type="curve"/>
      <point x="40" y="251" type="line"/>
      <point x="67.3198" y="312.479"/>
      <point x="114.573" y="362"/>
      <point x="186" y="362" type="curve" smooth="yes"/>
      <point x="258.66" y="362"/>
      <point x="303.739" y="305"/>
      <point x="351" y="305" type="curve" smooth="yes"/>
      <point x="388.72" y="305"/>
      <point x="405.791" y="331.55"/>
      <point x="421" y="362" type="curve"/>
      <point x="503" y="312" type="line"/>
      <point x="475.43" y="249.949"/>
      <point x="427.199" y="200"/>
      <point x="355" y="200" type="curve" smooth="yes"/>
      <point x="284.945" y="200"/>
      <point x="240.786" y="258"/>
    </contour>
  </outline>
</glyph>
<glyph name="twosuperior" format="2">
  <advance width="354"/>
  <unicode hex="00B2"/>
  <outline>
    <contour>
      <point x="45" y="522" type="line"/>
      <point x="185" y="697" type="line" smooth="yes"/>
      <point x="200.371" y="716.214"/>
      <point x="206" y="728.529"/>
      <point x="206" y="753" type="curve" smooth="yes"/>
      <point x="206" y="774.085"/>
      <point x="196.357" y="788"/>
      <point x="174" y="788" type="curve" smooth="yes"/>
      <point x="146.786" y="788"/>
      <point x="143" y="762.358"/>
      <point x="143" y="741" type="curve"/>
      <point x="42" y="741" type="line"/>
      <point x="42" y="757" type="line" smooth="yes"/>
      <point x="42" y="836.002"/>
      <point x="105.577" y="877"/>
      <point x="179" y="877" type="curve" smooth="yes"/>
      <point x="260.484" y="877"/>
      <point x="313" y="827.666"/>
      <point x="313" y="746" type="curve" smooth="yes"/>
      <point x="313" y="704.628"/>
      <point x="297.257" y="678.169"/>
      <point x="272" y="647" type="curve" smooth="yes"/>
      <point x="178" y="531" type="line"/>
      <point x="313" y="531" type="line"/>
      <point x="313" y="440" type="line"/>
      <point x="45" y="440" type="line"/>
    </contour>
  </outline>
</glyph>
<glyph name="cedilla" format="2">
  <advance width="512"/>
  <unicode hex="00B8"/>
  <outline>
    <contour>
      <point x="230" y="13" type="line"/>
      <point x="331" y="13" type="line"/>
      <point x="276" y="-160" type="line"/>
      <point x="160" y="-160" type="line"/>
    </contour>
  </outline>
</glyph>
<glyph name="threequarters" format="2">
  <advance width="913"/>
  <unicode hex="00BE"/>
  <outline>
    <contour>
      <point x="38" y="401" type="curve"/>
      <point x="133" y="401" type="line"/>
      <point x="133" y="372.371"/>
      <point x="138.44" y="357"/>
      <point x="171" y="357" type="curve" smooth="yes"/>
      <point x="202.218" y="357"/>
      <point x="207" y="383.112"/>
      <point x="207" y="408" type="curve" smooth="yes"/>
      <point x="207" y="454.728"/>
      <point x="177.968" y="454"/>
      <point x="141" y="454" type="curve"/>
      <point x="141" y="541" type="line"/>
      <point x="180.989" y="541"/>
      <point x="200" y="541.355"/>
      <point x="200" y="588" type="curve" smooth="yes"/>
      <point x="200" y="609.447"/>
      <point x="191.541" y="626"/>
      <point x="168" y="626" type="curve" smooth="yes"/>
      <point x="136.81" y="626"/>
      <point x="134" y="609.021"/>
      <point x="134" y="583" type="curve"/>
      <point x="40" y="583" type="line"/>
      <point x="40" y="593" type="line" smooth="yes"/>
      <point x="40" y="674.128"/>
      <point x="94.9326" y="714"/>
      <point x="172" y="714" type="curve" smooth="yes"/>
      <point x="254.246" y="714"/>
      <point x="301" y="670.697"/>
      <point x="301" y="588" type="curve" smooth="yes"/>
      <point x="301" y="551.943"/>
      <point x="285.228" y="524.113"/>
      <point x="254" y="506" type="curve"/>
      <point x="299.618" y="488.289"/>
      <point x="308" y="441.332"/>
      <point x="308" y="398" type="curve" smooth="yes"/>
      <point x="308" y="319.408"/>
      <point x="250.644" y="270"/>
      <point x="174" y="270" type="curve" smooth="yes"/>
      <point x="81.8254" y="270"/>
      <point x="38" y="308.459"/>
    </contour>
    <contour>
      <point x="888" y="58" type="line"/>
      <point x="860" y="58" type="line"/>
      <point x="860" y="0" type="line"/>
      <point x="755" y="0" type="line"/>
      <point x="755" y="58" type="line"/>
      <point x="589" y="58" type="line"/>
      <point x="589" y="150" type="line"/>
      <point x="707" y="429" type="line"/>
      <point x="812" y="429" type="line"/>
      <point x="694" y="150" type="line"/>
      <point x="755" y="150" type="line"/>
      <point x="755" y="240" type="line"/>
      <point x="860" y="240" type="line"/>
      <point x="860" y="150" type="line"/>
      <point x="888" y="150" type="line"/>
    </contour>
    <contour>
      <point x="600" y="712" type="line"/>
      <point x="701" y="712" type="line"/>
      <point x="306" y="0" type="line"/>
      <point x="206" y="0" type="line"/>
    </contour>
  </outline>
</glyph>
<glyph name="Thorn" format="2">
  <advance width="580"/>
  <unicode hex="00DE"/>
  <outline>
    <contour>
      <point x="556" y="368" type="curve" smooth="yes"/>
      <point x="556" y="227.56"/>
      <point x="459.354" y="153"/>
      <point x="325" y="153" type="curve" smooth="yes"/>
      <point x="195" y="153" type="line"/>
      <point x="195" y="0" type="line"/>
      <point x="60" y="0" type="line"/>
      <point x="60" y="707" type="line"/>
      <point x="195" y="707" type="line"/>
      <point x="195" y="590" type="line"/>
      <point x="325" y="590" type="line" smooth="yes"/>
      <point x="462.903" y="590"/>
      <point x="556" y="509.52"/>
    </contour>
    <contour>
      <point x="422" y="368" type="curve" smooth="yes"/>
      <point x="422" y="435.03"/>
      <point x="385.409" y="473"/>
      <point x="318" y="473" type="curve" smooth="yes"/>
      <point x="195" y="473" type="line"/>
      <point x="195" y="269" type="line"/>
      <point x="318" y="269" type="line" smooth="yes"/>
      <point x="380.229" y="269"/>
      <point x="422" y="303.973"/>
    </contour>
  </outline>
</glyph>
<glyph name="oslash" format="2">
  <advance width="522"/>
  <unicode hex="00F8"/>
  <outline>
    <contour>
      <point x="425" y="477" type="line"/>
      <point x="464.348" y="433.026"/>
      <point x="476" y="373.393"/>
      <point x="476" y="316" type="curve" smooth="yes"/>
      <point x="476" y="217" type="line" smooth="yes"/>
      <point x="476" y="75.8015"/>
      <point x="407.053" y="-6"/>
      <point x="262" y="-6" type="curve" smooth="yes"/>
      <point x="220.535" y="-6"/>
      <point x="177.858" y="-0.0867567"/>
      <point x="141" y="20" type="curve"/>
      <point x="110" y="-30" type="line"/>
      <point x="46" y="-30" type="line"/>
      <point x="98" y="54" type="line"/>
      <point x="57.7155" y="97.751"/>
      <point x="46" y="159.327"/>
      <point x="46" y="217" type="curve" smooth="yes"/>
      <point x="46" y="316" type="line" smooth="yes"/>
      <point x="46" y="456.46"/>
      <point x="118.199" y="539"/>
      <point x="262" y="539" type="curve" smooth="yes"/>
      <point x="303.681" y="539"/>
      <point x="346.139" y="531.095"/>
      <point x="383" y="511" type="curve"/>
      <point x="413" y="559" type="line"/>
      <point x="476" y="559" type="line"/>
    </contour>
    <contour>
      <point x="175" y="178" type="curve"/>
      <point x="318" y="408" type="line"/>
      <point x="302.533" y="421.251"/>
      <point x="281.963" y="426"/>
      <point x="262" y="426" type="curve" smooth="yes"/>
      <point x="192.938" y="426"/>
      <point x="172" y="375.373"/>
      <point x="172" y="314" type="curve" smooth="yes"/>
      <point x="172" y="218" type="line" smooth="yes"/>
      <point x="172" y="204.618"/>
      <point x="172.8" y="191.211"/>
    </contour>
    <contour>
      <point x="347" y="352" type="curve"/>
      <point x="205" y="124" type="line"/>
      <point x="220.747" y="110.505"/>
      <point x="241.721" y="106"/>
      <point x="262" y="106" type="curve" smooth="yes"/>
      <point x="330.595" y="106"/>
      <point x="350" y="157.759"/>
      <point x="350" y="218" type="curve" smooth="yes"/>
      <point x="350" y="314" type="line" smooth="yes"/>
      <point x="350" y="326.704"/>
      <point x="349.261" y="339.483"/>
    </contour>
  </outline>
</glyph>
<glyph name="Iogonek" format="2">
  <advance width="254"/>
  <unicode hex="012E"/>
  <outline>
    <component base="I"/>
    <contour>
      <point x="85" y="13" type="line"/>
      <point x="175.445" y="13" type="line"/>
      <point x="75" y="-114" type="line"/>
      <point x="99.011" y="-138.656"/>
      <point x="135.076" y="-138.211"/>
      <point x="167" y="-138" type="curve"/>
      <point x="167" y="-227" type="line"/>
      <point x="81.5119" y="-225.901"/>
      <point x="3.14242" y="-191.217"/>
      <point x="-27" y="-106" type="curve"/>
    </contour>
  </outline>
</glyph>
<glyph name="iogonek" format="2">
  <advance width="246"/>
  <unicode hex="012F"/>
  <outline>
    <component base="i"/>
    <contour>
      <point x="71.3695" y="0" type="line"/>
      <point x="185.08" y="0" type="line"/>
      <point x="71.3695" y="-62" type="line"/>
      <point x="89.9541" y="-82.1068"/>
      <point x="128.889" y="-86"/>
      <point x="163.369" y="-86" type="curve"/>
      <point x="163.369" y="-175" type="line"/>
      <point x="76.0328" y="-175"/>
      <point x="0.233744" y="-140.721"/>
      <point x="-30.6305" y="-54" type="curve"/>
    </contour>
  </outline>
</glyph>
<glyph name="scaron" format="2">
  <advance width="485"/>
  <unicode hex="0161"/>
  <anchor x="243" y="532" name="top"/>
  <outline>
    <contour>
      <point x="37" y="162" type="curve"/>
      <point x="156" y="162" type="line"/>
      <point x="156" y="112.605"/>
      <point x="200.489" y="96"/>
      <point x="243" y="96" type="curve" smooth="yes"/>
      <point x="282.431" y="96"/>
      <point x="332" y="107.199"/>
      <point x="332" y="156" type="curve" smooth="yes"/>
      <point x="332" y="265.465"/>
      <point x="44" y="158.224"/>
      <point x="44" y="374" type="curve" smooth="yes"/>
      <point x="44" y="486.376"/>
      <point x="141.912" y="539"/>
      <point x="243" y="539" type="curve" smooth="yes"/>
      <point x="342.918" y="539"/>
      <point x="443" y="490.611"/>
      <point x="443" y="378" type="curve"/>
      <point x="326" y="378" type="line"/>
      <point x="326" y="426.568"/>
      <point x="284.126" y="439"/>
      <point x="243" y="439" type="curve" smooth="yes"/>
      <point x="206.107" y="439"/>
      <point x="163" y="427.882"/>
      <point x="163" y="383" type="curve" smooth="yes"/>
      <point x="163" y="273.522"/>
      <point x="453" y="381.198"/>
      <point x="453" y="165" type="curve" smooth="yes"/>
      <point x="453" y="41.6515"/>
      <point x="347.76" y="-6"/>
      <point x="239" y="-6" type="curve" smooth="yes"/>
      <point x="131.459" y="-6"/>
      <point x="37" y="42.6747"/>
    </contour>
    <contour>
      <point x="78" y="738" type="line"/>
      <point x="178" y="738" type="line"/>
      <point x="243" y="658" type="line"/>
      <point x="307" y="738" type="line"/>
      <point x="407" y="738" type="line"/>
      <point x="289" y="584" type="line"/>
      <point x="196" y="584" type="line"/>
    </contour>
  </outline>
</glyph>
<glyph name="Tbar" format="2">
  <advance width="507"/>
  <unicode hex="0166"/>
  <outline>
    <component base="T"/>
    <contour>
      <point x="112" y="377" type="line"/>
      <point x="400" y="377" type="line"/>
      <point x="400" y="264" type="line"/>
      <point x="112" y="264" type="line"/>
    </contour>
  </outline>
</glyph>
<glyph name="ring" format="2">
  <advance width="512"/>
  <unicode hex="02DA"/>
  <outline>
    <contour>
      <point x="148" y="696" type="curve" smooth="yes"/>
      <point x="148" y="756.461"/>
      <point x="193.222" y="803"/>
      <point x="254" y="803" type="curve" smooth="yes"/>
      <point x="315.54" y="803"/>
      <point x="359" y="756.892"/>
      <point x="359" y="696" type="curve" smooth="yes"/>
      <point x="359" y="636.038"/>
      <point x="313.962" y="591"/>
      <point x="254" y="591" type="curve" smooth="yes"/>
      <point x="194.752" y="591"/>
      <point x="148" y="636.441"/>
    </contour>
    <contour>
      <point x="302" y="696" type="curve" smooth="yes"/>
      <point x="302" y="723.396"/>
      <point x="282.018" y="746"/>
      <point x="254" y="746" type="curve" smooth="yes"/>
      <point x="224.895" y="746"/>
      <point x="207" y="724.102"/>
      <point x="207" y="696" type="curve" smooth="yes"/>
      <point x="207" y="670.84"/>
      <point x="228.277" y="647"/>
      <point x="254" y="647" type="curve" smooth="yes"/>
      <point x="280.093" y="647"/>
      <point x="302" y="670.191"/>
    </contour>
  </outline>
</glyph>
<glyph name="ringcmb" format="2">
  <unicode hex="030A"/>
  <anchor x="0" y="532" name="_top"/>
  <outline>
    <contour>
      <point x="-105" y="696" type="curve" smooth="yes"/>
      <point x="-105" y="756.892"/>
      <point x="-61.5398" y="803"/>
      <point x="0" y="803" type="curve" smooth="yes"/>
      <point x="61.5398" y="803"/>
      <point x="105" y="756.892"/>
      <point x="105" y="696" type="curve" smooth="yes"/>
      <point x="105" y="636.038"/>
      <point x="59.9621" y="591"/>
      <point x="0" y="591" type="curve" smooth="yes"/>
      <point x="-59.9621" y="591"/>
      <point x="-105" y="636.038"/>
    </contour>
    <contour>
      <point x="48" y="696" type="curve" smooth="yes"/>
      <point x="48" y="723.396"/>
      <point x="28.0183" y="746"/>
      <point x="0" y="746" type="curve" smooth="yes"/>
      <point x="-29.1052" y="746"/>
      <point x="-47" y="724.102"/>
      <point x="-47" y="696" type="curve" smooth="yes"/>
      <point x="-47" y="670.84"/>
      <point x="-25.7227" y="647"/>
      <point x="0" y="647" type="curve" smooth="yes"/>
      <point x="26.0934" y="647"/>
      <point x="48" y="670.191"/>
    </contour>
  </outline>
</glyph>
<glyph name="commaturnedabovecmb" format="2">
  <unicode hex="0312"/>
  <outline>
    <contour>
      <point x="46" y="602" type="line"/>
      <point x="-95" y="602" type="line"/>
      <point x="47" y="738" type="line"/>
      <point x="156" y="738" type="line"/>
    </contour>
  </outline>
</glyph>
<glyph name="Tshecyr" format="2">
  <advance width="659"/>
  <unicode hex="040B"/>
  <outline>
    <contour>
      <point x="478.705" y="590" type="line"/>
      <point x="262" y="590" type="line"/>
      <point x="262" y="0" type="line"/>
      <point x="126" y="0" type="line"/>
      <point x="126" y="590" type="line"/>
      <point x="6" y="590" type="line"/>
      <point x="6" y="707" type="line"/>
      <point x="478.705" y="707" type="line"/>
    </contour>
    <contour>
      <point x="272.025" y="475" type="line"/>
      <point x="311.411" y="509.536"/>
      <point x="370.431" y="529"/>
      <point x="420.452" y="529" type="curve" smooth="yes"/>
      <point x="547.87" y="529"/>
      <point x="607.184" y="447.047"/>
      <point x="607.184" y="337" type="curve" smooth="yes"/>
      <point x="607.184" y="-0.407608" type="line"/>
      <point x="480.184" y="-0.407608" type="line"/>
      <point x="480.184" y="322" type="line" smooth="yes"/>
      <point x="480.184" y="375.874"/>
      <point x="451.202" y="416"/>
      <point x="383.94" y="416" type="curve" smooth="yes"/>
      <point x="320.241" y="416"/>
      <point x="262.184" y="373.856"/>
      <point x="262.184" y="322" type="curve"/>
      <point x="226.945" y="322.005" type="line"/>
      <point x="226.945" y="475.082" type="line"/>
    </contour>
  </outline>
</glyph>
<glyph name="Zecyr" format="2">
  <advance width="621"/>
  <unicode hex="0417"/>
  <outline>
    <contour>
      <point x="570" y="199" type="curve" smooth="yes"/>
      <point x="570" y="269.899"/>
      <point x="538.988" y="334.697"/>
      <point x="472" y="364" type="curve"/>
      <point x="528.409" y="392.15"/>
      <point x="561" y="451.284"/>
      <point x="561" y="514" type="curve" smooth="yes"/>
      <point x="561" y="648.111"/>
      <point x="438.352" y="717"/>
      <point x="312" y="717" type="curve" smooth="yes"/>
      <point x="152.089" y="717"/>
      <point x="51.9591" y="637.187"/>
      <point x="51.73" y="509.54" type="curve"/>
      <point x="186.73" y="509.54" type="line"/>
      <point x="186.73" y="565.124"/>
      <point x="241.632" y="600"/>
      <point x="312.46" y="600" type="curve" smooth="yes"/>
      <point x="369.834" y="600"/>
      <point x="426" y="565.622"/>
      <point x="426" y="506" type="curve" smooth="yes"/>
      <point x="426" y="447"/>
      <point x="387.147" y="418"/>
      <point x="332" y="418" type="curve" smooth="yes"/>
      <point x="248.73" y="418" type="line"/>
      <point x="248.73" y="301" type="line"/>
      <point x="340" y="301" type="line" smooth="yes"/>
      <point x="399.005" y="301"/>
      <point x="436" y="270.045"/>
      <point x="436" y="208" type="curve" smooth="yes"/>
      <point x="436" y="145.518"/>
      <point x="382.211" y="109"/>
      <point x="320.46" y="109" type="curve" smooth="yes"/>
      <point x="245.788" y="109"/>
      <point x="186.73" y="144.481"/>
      <point x="186.73" y="199" type="curve"/>
      <point x="51.73" y="198.691" type="line"/>
      <point x="56.3807" y="76.3651"/>
      <point x="167.105" y="-8"/>
      <point x="323" y="-8" type="curve" smooth="yes"/>
      <point x="453.605" y="-8"/>
      <point x="570" y="63.5731"/>
    </contour>
  </outline>
</glyph>
<glyph name="Icyr" format="2">
  <advance width="649"/>
  <unicode hex="0418"/>
  <anchor x="315" y="707" name="top"/>
  <outline>
    <contour>
      <point x="60" y="707" type="line"/>
      <point x="194" y="707" type="line"/>
      <point x="194" y="354.253" type="line" smooth="yes"/>
      <point x="194" y="312.085"/>
      <point x="190.568" y="268.518"/>
      <point x="181.027" y="227.352" type="curve"/>
      <point x="185.027" y="227.449" type="line"/>
      <point x="194.186" y="249.562"/>
      <point x="206.026" y="272.146"/>
      <point x="218.287" y="293.647" type="curve" smooth="yes"/>
      <point x="454" y="707" type="line"/>
      <point x="589" y="707" type="line"/>
      <point x="589" y="0" type="line"/>
      <point x="454" y="0" type="line"/>
      <point x="454" y="350.676" type="line" smooth="yes"/>
      <point x="454" y="390.998"/>
      <point x="454.853" y="430.245"/>
      <point x="462.965" y="472.37" type="curve"/>
      <point x="458.965" y="472.37" type="line"/>
      <point x="450.956" y="451.531"/>
      <point x="440.737" y="430.794"/>
      <point x="429.428" y="411.048" type="curve" smooth="yes"/>
      <point x="194" y="0" type="line"/>
      <point x="60" y="0" type="line"/>
    </contour>
  </outline>
  <guideline angle="90" name="vertical" x="315" y="0"/>
  <guideline angle="0" name="horizontal" x="0" y="707"/>
  <guideline angle="90" name="vertical" x="315" y="0"/>
  <guideline angle="0" name="horizontal" x="0" y="707"/>
</glyph>
<glyph name="Hardcyr" format="2">
  <advance width="670"/>
  <unicode hex="042A"/>
  <outline>
    <component base="Softcyr" xOffset="90"/>
    <contour>
      <point x="0" y="590" type="line"/>
      <point x="0" y="707" type="line"/>
      <point x="264" y="707" type="line"/>
      <point x="264" y="590" type="line"/>
    </contour>
  </outline>
</glyph>
<glyph name="Yucyr" format="2">
  <advance width="834"/>
  <unicode hex="042E"/>
  <outline>
    <contour>
      <point x="340" y="299" type="line"/>
      <point x="195" y="299" type="line"/>
      <point x="195" y="0" type="line"/>
      <point x="60" y="0" type="line"/>
      <point x="60" y="707" type="line"/>
      <point x="195" y="707" type="line"/>
      <point x="195" y="416" type="line"/>
      <point x="340" y="416" type="line"/>
    </contour>
    <contour>
      <point x="271" y="272.339" type="curve" smooth="yes"/>
      <point x="271" y="433.674" type="line" smooth="yes"/>
      <point x="271" y="618.7"/>
      <point x="360.166" y="717"/>
      <point x="528" y="717" type="curve" smooth="yes"/>
      <point x="694.906" y="717"/>
      <point x="783" y="619.12"/>
      <point x="783" y="433.674" type="curve" smooth="yes"/>
      <point x="783" y="272.339" type="line" smooth="yes"/>
      <point x="783" y="89.6479"/>
      <point x="692.785" y="-8"/>
      <point x="524" y="-8" type="curve" smooth="yes"/>
      <point x="357.747" y="-8"/>
      <point x="271" y="88.1202"/>
    </contour>
    <contour>
      <point x="649" y="274.331" type="curve" smooth="yes"/>
      <point x="649" y="426.702" type="line" smooth="yes"/>
      <point x="649" y="539.907"/>
      <point x="607.712" y="597"/>
      <point x="525.844" y="597" type="curve" smooth="yes"/>
      <point x="444.654" y="597"/>
      <point x="406" y="542.073"/>
      <point x="406" y="426.702" type="curve" smooth="yes"/>
      <point x="406" y="274.331" type="line" smooth="yes"/>
      <point x="406" y="165.137"/>
      <point x="445.165" y="112"/>
      <point x="525.646" y="112" type="curve" smooth="yes"/>
      <point x="606.919" y="112"/>
      <point x="649" y="167.377"/>
    </contour>
  </outline>
</glyph>
<glyph name="vecyr" format="2">
  <advance width="505"/>
  <unicode hex="0432"/>
  <anchor x="278" y="707" name="top"/>
  <outline>
    <component base="dotlessi" xOffset="-5"/>
    <contour>
      <point x="458.99" y="152.752" type="curve" smooth="yes"/>
      <point x="458.99" y="206.102"/>
      <point x="435.338" y="251.851"/>
      <point x="384.248" y="273.901" type="curve"/>
      <point x="426.694" y="295.083"/>
      <point x="451.218" y="336.57"/>
      <point x="451.218" y="383.762" type="curve" smooth="yes"/>
      <point x="451.218" y="484.677"/>
      <point x="375.255" y="532"/>
      <point x="271.657" y="532" type="curve" smooth="yes"/>
      <point x="135.112" y="532" type="line"/>
      <point x="135.112" y="444.854" type="line"/>
      <point x="252.901" y="444.961" type="line" smooth="yes"/>
      <point x="296.073" y="445"/>
      <point x="323.634" y="422.607"/>
      <point x="323.634" y="377.743" type="curve" smooth="yes"/>
      <point x="323.634" y="333.347"/>
      <point x="294.398" y="313.539"/>
      <point x="252.901" y="313.539" type="curve" smooth="yes"/>
      <point x="135.112" y="313.539" type="line"/>
      <point x="135.112" y="227.49" type="line"/>
      <point x="258.921" y="227.49" type="line" smooth="yes"/>
      <point x="303.321" y="227.49"/>
      <point x="331.158" y="206.212"/>
      <point x="331.158" y="159.525" type="curve" smooth="yes"/>
      <point x="331.158" y="112.509"/>
      <point x="305.386" y="87.0086"/>
      <point x="258.921" y="87.0396" type="curve" smooth="yes"/>
      <point x="135.112" y="87.1222" type="line"/>
      <point x="135.112" y="0" type="line"/>
      <point x="280.853" y="0" type="line" smooth="yes"/>
      <point x="388.068" y="0"/>
      <point x="458.99" y="50.8471"/>
    </contour>
  </outline>
  <guideline angle="90" name="vertical" x="222.802" y="0"/>
  <guideline angle="0" name="horizontal" x="0" y="532"/>
</glyph>
<glyph name="elcyr" format="2">
  <advance width="532"/>
  <unicode hex="043B"/>
  <outline>
    <component base="dotlessi" xOffset="291"/>
    <contour>
      <point x="10.8842" y="112.002" type="line"/>
      <point x="43.831" y="112.119"/>
      <point x="71.9043" y="148.323"/>
      <point x="77.3676" y="203.345" type="curve" smooth="yes"/>
      <point x="110" y="531.994" type="line"/>
      <point x="235" y="531.994" type="line"/>
      <point x="202.068" y="174.144" type="line" smooth="yes"/>
      <point x="190.948" y="53.307"/>
      <point x="132.425" y="0"/>
      <point x="10.8842" y="0" type="curve"/>
    </contour>
    <contour>
      <point x="165" y="445" type="line"/>
      <point x="165" y="532" type="line"/>
      <point x="379" y="532" type="line"/>
      <point x="379" y="445" type="line"/>
    </contour>
  </outline>
  <guideline angle="84.2722" x="77" y="203"/>
  <guideline angle="264.742" x="235" y="532"/>
</glyph>
<glyph name="encyr" format="2">
  <advance width="554"/>
  <unicode hex="043D"/>
  <anchor x="277" y="532" name="top"/>
  <outline>
    <component base="dotlessi" xOffset="-5"/>
    <component base="dotlessi" xOffset="312.651" yOffset="2.27374e-13"/>
    <contour>
      <point x="120" y="246" type="line"/>
      <point x="120" y="333" type="line"/>
      <point x="440.828" y="333" type="line"/>
      <point x="440.828" y="246" type="line"/>
    </contour>
  </outline>
  <guideline angle="90" name="vertical" x="277" y="0"/>
  <guideline angle="0" name="horizontal" x="0" y="532"/>
</glyph>
<glyph name="pecyr" format="2">
  <advance width="544"/>
  <unicode hex="043F"/>
  <anchor x="277" y="532" name="top"/>
  <outline>
    <component base="dotlessi" xOffset="-5"/>
    <component base="dotlessi" xOffset="302.651" yOffset="2.27374e-13"/>
    <contour>
      <point x="110" y="445" type="line"/>
      <point x="110" y="532" type="line"/>
      <point x="430.828" y="532" type="line"/>
      <point x="430.828" y="445" type="line"/>
    </contour>
  </outline>
  <guideline angle="90" name="vertical" x="277" y="0"/>
  <guideline angle="0" name="horizontal" x="0" y="532"/>
</glyph>
<glyph name="tecyr" format="2">
  <advance width="402"/>
  <unicode hex="0442"/>
  <anchor x="201" y="532" name="top"/>
  <outline>
    <component base="dotlessi" xOffset="78"/>
    <contour>
      <point x="0" y="445" type="line"/>
      <point x="0" y="532" type="line"/>
      <point x="401.828" y="532" type="line"/>
      <point x="401.828" y="445" type="line"/>
    </contour>
  </outline>
  <guideline angle="90" name="vertical" x="201" y="0"/>
  <guideline angle="0" name="horizontal" x="0" y="532"/>
</glyph>
<glyph name="tsecyr" format="2">
  <advance width="573"/>
  <unicode hex="0446"/>
  <outline>
    <component base="dotlessi" xOffset="-5"/>
    <component base="dotlessi" xOffset="302.651" yOffset="2.27374e-13"/>
    <contour>
      <point x="118" y="0" type="line"/>
      <point x="118" y="87" type="line"/>
      <point x="438.828" y="87" type="line"/>
      <point x="438.828" y="0" type="line"/>
    </contour>
    <contour>
      <point x="436.229" y="-169.821" type="line"/>
      <point x="436.229" y="87.268" type="line"/>
      <point x="562.229" y="87.268" type="line"/>
      <point x="562.229" y="-169.821" type="line"/>
    </contour>
  </outline>
</glyph>
<glyph name="shchacyr" format="2">
  <advance width="809"/>
  <unicode hex="0449"/>
  <outline>
    <contour>
      <point x="672.229" y="-169.821" type="line"/>
      <point x="672.229" y="87.268" type="line"/>
      <point x="798.229" y="87.268" type="line"/>
      <point x="798.229" y="-169.821" type="line"/>
    </contour>
    <contour>
      <point x="55" y="532" type="line"/>
      <point x="181" y="532" type="line"/>
      <point x="181" y="0" type="line"/>
      <point x="55" y="0" type="line"/>
    </contour>
    <contour>
      <point x="598.822" y="532" type="line"/>
      <point x="724.822" y="532" type="line"/>
      <point x="724.822" y="0" type="line"/>
      <point x="598.822" y="0" type="line"/>
    </contour>
    <contour>
      <point x="118" y="0" type="line"/>
      <point x="118" y="87" type="line"/>
      <point x="660.85" y="87" type="line"/>
      <point x="660.85" y="0" type="line"/>
    </contour>
    <contour>
      <point x="327.044" y="532" type="line"/>
      <point x="453.044" y="532" type="line"/>
      <point x="453.044" y="0" type="line"/>
      <point x="327.044" y="0" type="line"/>
    </contour>
  </outline>
</glyph>
<glyph name="quotedblleft" format="2">
  <advance width="392"/>
  <unicode hex="201C"/>
  <outline>
    <contour>
      <point x="159" y="443" type="line"/>
      <point x="39" y="443" type="line"/>
      <point x="39" y="648" type="line"/>
      <point x="159" y="750" type="line"/>
    </contour>
    <contour>
      <point x="353" y="443" type="line"/>
      <point x="233" y="443" type="line"/>
      <point x="233" y="648" type="line"/>
      <point x="353" y="750" type="line"/>
    </contour>
  </outline>
</glyph>
<glyph name="bullet" format="2">
  <advance width="463"/>
  <unicode hex="2022"/>
  <outline>
    <contour>
      <point x="83" y="315" type="curve" smooth="yes"/>
      <point x="83" y="402.533"/>
      <point x="143.939" y="465"/>
      <point x="232" y="465" type="curve" smooth="yes"/>
      <point x="319.996" y="465"/>
      <point x="381" y="402.42"/>
      <point x="381" y="315" type="curve" smooth="yes"/>
      <point x="381" y="227.909"/>
      <point x="319.139" y="166"/>
      <point x="232" y="166" type="curve" smooth="yes"/>
      <point x="144.793" y="166"/>
      <point x="83" y="227.793"/>
    </contour>
  </outline>
</glyph>
<glyph name="dottedcircle" format="2">
  <advance width="556"/>
  <unicode hex="25CC"/>
  <anchor x="278" y="0" name="bottom"/>
  <anchor x="278" y="519" name="top"/>
  <outline>
    <contour>
      <point x="278" y="432" type="curve" smooth="yes"/>
      <point x="263.222" y="432"/>
      <point x="251" y="444.222"/>
      <point x="251" y="459" type="curve" smooth="yes"/>
      <point x="251" y="473.778"/>
      <point x="263.222" y="486"/>
      <point x="278" y="486" type="curve" smooth="yes"/>
      <point x="292.427" y="486"/>
      <point x="305" y="473.41"/>
      <point x="305" y="459" type="curve" smooth="yes"/>
      <point x="305" y="444.59"/>
      <point x="292.427" y="432"/>
    </contour>
    <contour>
      <point x="173" y="404" type="curve" smooth="yes"/>
      <point x="158.513" y="404"/>
      <point x="147" y="416.819"/>
      <point x="147" y="431" type="curve" smooth="yes"/>
      <point x="147" y="444.909"/>
      <point x="159.091" y="457"/>
      <point x="173" y="457" type="curve" smooth="yes"/>
      <point x="187.181" y="457"/>
      <point x="200" y="445.487"/>
      <point x="200" y="431" type="curve" smooth="yes"/>
      <point x="200" y="416.222"/>
      <point x="187.778" y="404"/>
    </contour>
    <contour>
      <point x="382" y="404" type="curve" smooth="yes"/>
      <point x="367.513" y="404"/>
      <point x="356" y="416.819"/>
      <point x="356" y="431" type="curve" smooth="yes"/>
      <point x="356" y="444.909"/>
      <point x="368.091" y="457"/>
      <point x="382" y="457" type="curve" smooth="yes"/>
      <point x="396.181" y="457"/>
      <point x="409" y="445.487"/>
      <point x="409" y="431" type="curve" smooth="yes"/>
      <point x="409" y="416.222"/>
      <point x="396.778" y="404"/>
    </contour>
    <contour>
      <point x="103" y="328" type="curve" smooth="yes"/>
      <point x="88.2217" y="328"/>
      <point x="76" y="340.222"/>
      <point x="76" y="355" type="curve" smooth="yes"/>
      <point x="76" y="369.487"/>
      <point x="88.819" y="381"/>
      <point x="103" y="381" type="curve" smooth="yes"/>
      <point x="117.181" y="381"/>
      <point x="130" y="369.487"/>
      <point x="130" y="355" type="curve" smooth="yes"/>
      <point x="130" y="340.222"/>
      <point x="117.778" y="328"/>
    </contour>
    <contour>
      <point x="453" y="328" type="curve" smooth="yes"/>
      <point x="438.222" y="328"/>
      <point x="426" y="340.222"/>
      <point x="426" y="355" type="curve" smooth="yes"/>
      <point x="426" y="369.487"/>
      <point x="438.819" y="381"/>
      <point x="453" y="381" type="curve" smooth="yes"/>
      <point x="466.837" y="381"/>
      <point x="480" y="369.122"/>
      <point x="480" y="355" type="curve" smooth="yes"/>
      <point x="480" y="340.59"/>
      <point x="467.427" y="328"/>
    </contour>
    <contour>
      <point x="78" y="232" type="curve" smooth="yes"/>
      <point x="63.2217" y="232"/>
      <point x="51" y="244.222"/>
      <point x="51" y="259" type="curve" smooth="yes"/>
      <point x="51" y="273.778"/>
      <point x="63.2217" y="286"/>
      <point x="78" y="286" type="curve" smooth="yes"/>
      <point x="92.4271" y="286"/>
      <point x="105" y="273.41"/>
      <point x="105" y="259" type="curve" smooth="yes"/>
      <point x="105" y="244.59"/>
      <point x="92.4271" y="232"/>
    </contour>
    <contour>
      <point x="478" y="232" type="curve" smooth="yes"/>
      <point x="463.222" y="232"/>
      <point x="451" y="244.222"/>
      <point x="451" y="259" type="curve" smooth="yes"/>
      <point x="451" y="273.778"/>
      <point x="463.222" y="286"/>
      <point x="478" y="286" type="curve" smooth="yes"/>
      <point x="492.778" y="286"/>
      <point x="505" y="273.778"/>
      <point x="505" y="259" type="curve" smooth="yes"/>
      <point x="505" y="244.222"/>
      <point x="492.778" y="232"/>
    </contour>
    <contour>
      <point x="103" y="137" type="curve" smooth="yes"/>
      <point x="88.819" y="137"/>
      <point x="76" y="148.513"/>
      <point x="76" y="163" type="curve" smooth="yes"/>
      <point x="76" y="177.778"/>
      <point x="88.2217" y="190"/>
      <point x="103" y="190" type="curve" smooth="yes"/>
      <point x="117.778" y="190"/>
      <point x="130" y="177.778"/>
      <point x="130" y="163" type="curve" smooth="yes"/>
      <point x="130" y="148.513"/>
      <point x="117.181" y="137"/>
    </contour>
    <contour>
      <point x="453" y="137" type="curve" smooth="yes"/>
      <point x="438.819" y="137"/>
      <point x="426" y="148.513"/>
      <point x="426" y="163" type="curve" smooth="yes"/>
      <point x="426" y="177.778"/>
      <point x="438.222" y="190"/>
      <point x="453" y="190" type="curve" smooth="yes"/>
      <point x="467.427" y="190"/>
      <point x="480" y="177.41"/>
      <point x="480" y="163" type="curve" smooth="yes"/>
      <point x="480" y="148.878"/>
      <point x="466.837" y="137"/>
    </contour>
    <contour>
      <point x="173" y="61" type="curve" smooth="yes"/>
      <point x="159.091" y="61"/>
      <point x="147" y="73.0908"/>
      <point x="147" y="87" type="curve" smooth="yes"/>
      <point x="147" y="101.181"/>
      <point x="158.513" y="114"/>
      <point x="173" y="114" type="curve" smooth="yes"/>
      <point x="187.778" y="114"/>
      <point x="200" y="101.778"/>
      <point x="200" y="87" type="curve" smooth="yes"/>
      <point x="200" y="72.5129"/>
      <point x="187.181" y="61"/>
    </contour>
    <contour>
      <point x="382" y="61" type="curve" smooth="yes"/>
      <point x="368.091" y="61"/>
      <point x="356" y="73.0908"/>
      <point x="356" y="87" type="curve" smooth="yes"/>
      <point x="356" y="101.181"/>
      <point x="367.513" y="114"/>
      <point x="382" y="114" type="curve" smooth="yes"/>
      <point x="396.778" y="114"/>
      <point x="409" y="101.778"/>
      <point x="409" y="87" type="curve" smooth="yes"/>
      <point x="409" y="72.5129"/>
      <point x="396.181" y="61"/>
    </contour>
    <contour>
      <point x="278" y="32" type="curve" smooth="yes"/>
      <point x="263.222" y="32"/>
      <point x="251" y="44.2217"/>
      <point x="251" y="59" type="curve" smooth="yes"/>
      <point x="251" y="73.7783"/>
      <point x="263.222" y="86"/>
      <point x="278" y="86" type="curve" smooth="yes"/>
      <point x="292.427" y="86"/>
      <point x="305" y="73.4102"/>
      <point x="305" y="59" type="curve" smooth="yes"/>
      <point x="305" y="44.5898"/>
      <point x="292.427" y="32"/>
    </contour>
  </outline>
</glyph>
<glyph name="fl" format="2">
  <advance width="635"/>
  <unicode hex="FB02"/>
  <outline>
    <contour>
      <point x="219" y="532" type="curve"/>
      <point x="314" y="532" type="line"/>
      <point x="314" y="443" type="line"/>
      <point x="219" y="443" type="line"/>
      <point x="219" y="0" type="line"/>
      <point x="93" y="0" type="line"/>
      <point x="93" y="443" type="line"/>
      <point x="37" y="443" type="line"/>
      <point x="37" y="532" type="line"/>
      <point x="93" y="532" type="line"/>
      <point x="93" y="564" type="line" smooth="yes"/>
      <point x="93" y="656.254"/>
      <point x="150.413" y="707"/>
      <point x="241" y="707" type="curve" smooth="yes"/>
      <point x="314" y="707" type="line"/>
      <point x="314" y="621" type="line"/>
      <point x="225.67" y="621"/>
      <point x="219" y="621.624"/>
    </contour>
    <contour>
      <point x="397" y="162" type="curve" smooth="yes"/>
      <point x="397" y="707" type="line"/>
      <point x="524" y="707" type="line"/>
      <point x="524" y="170" type="line" smooth="yes"/>
      <point x="524" y="100.569"/>
      <point x="560.679" y="110"/>
      <point x="617" y="110" type="curve"/>
      <point x="617" y="0" type="line"/>
      <point x="559" y="0" type="line" smooth="yes"/>
      <point x="456.367" y="0"/>
      <point x="397" y="59.2068"/>
    </contour>
  </outline>
</glyph>
<glyph name="Decyr.loclBGR" format="2">
  <advance width="648"/>
  <outline>
    <component base="V" xScale="-1" yScale="-1" xOffset="617" yOffset="707"/>
    <contour>
      <point x="77.412" y="-0.3753" type="line"/>
      <point x="77.412" y="116.621" type="line"/>
      <point x="506.631" y="116.621" type="line"/>
      <point x="506.631" y="-0.3753" type="line"/>
    </contour>
    <contour>
      <point x="26.6234" y="-169.821" type="line"/>
      <point x="26.6234" y="116.943" type="line"/>
      <point x="160.623" y="116.944" type="line"/>
      <point x="160.623" y="-169.821" type="line"/>
    </contour>
    <contour>
      <point x="494.229" y="-169.821" type="line"/>
      <point x="494.229" y="117.268" type="line"/>
      <point x="628.229" y="117.27" type="line"/>
      <point x="628.229" y="-169.821" type="line"/>
    </contour>
  </outline>
</glyph>
<glyph name="four.dnom" format="2">
  <advance width="355"/>
  <outline>
    <contour>
      <point x="330" y="58" type="line"/>
      <point x="302" y="58" type="line"/>
      <point x="302" y="0" type="line"/>
      <point x="197" y="0" type="line"/>
      <point x="197" y="58" type="line"/>
      <point x="31" y="58" type="line"/>
      <point x="31" y="150" type="line"/>
      <point x="148" y="429" type="line"/>
      <point x="254" y="429" type="line"/>
      <point x="136" y="150" type="line"/>
      <point x="197" y="150" type="line"/>
      <point x="197" y="240" type="line"/>
      <point x="302" y="240" type="line"/>
      <point x="302" y="150" type="line"/>
      <point x="330" y="150" type="line"/>
    </contour>
  </outline>
</glyph>
<glyph name="four.sups" format="2">
  <advance width="355"/>
  <outline>
    <contour>
      <point x="330" y="499" type="line"/>
      <point x="302" y="499" type="line"/>
      <point x="302" y="440" type="line"/>
      <point x="197" y="440" type="line"/>
      <point x="197" y="499" type="line"/>
      <point x="31" y="499" type="line"/>
      <point x="31" y="590" type="line"/>
      <point x="148" y="869" type="line"/>
      <point x="254" y="869" type="line"/>
      <point x="136" y="590" type="line"/>
      <point x="197" y="590" type="line"/>
      <point x="197" y="680" type="line"/>
      <point x="302" y="680" type="line"/>
      <point x="302" y="590" type="line"/>
      <point x="330" y="590" type="line"/>
    </contour>
  </outline>
</glyph>
<glyph name="one.dnom" format="2">
  <advance width="259"/>
  <outline>
    <contour>
      <point x="99" y="314" type="line"/>
      <point x="30" y="265" type="line"/>
      <point x="30" y="378" type="line"/>
      <point x="100" y="429" type="line"/>
      <point x="205" y="429" type="line"/>
      <point x="205" y="0" type="line"/>
      <point x="99" y="0" type="line"/>
    </contour>
  </outline>
</glyph>
<glyph name="one.sups" format="2">
  <advance width="259"/>
  <outline>
    <contour>
      <point x="99" y="755" type="line"/>
      <point x="30" y="706" type="line"/>
      <point x="30" y="818" type="line"/>
      <point x="100" y="869" type="line"/>
      <point x="205" y="869" type="line"/>
      <point x="205" y="440" type="line"/>
      <point x="99" y="440" type="line"/>
    </contour>
  </outline>
</glyph>
<glyph name="yucyr.loclBGR" format="2">
  <advance width="723"/>
  <anchor x="503" y="532" name="top"/>
  <outline>
    <component base="o" xOffset="201"/>
    <contour>
      <point x="125" y="246" type="line"/>
      <point x="125" y="333" type="line"/>
      <point x="312.222" y="333" type="line"/>
      <point x="312.222" y="246" type="line"/>
    </contour>
    <contour>
      <point x="55" y="707" type="line"/>
      <point x="181" y="707" type="line"/>
      <point x="181" y="0" type="line"/>
      <point x="55" y="0" type="line"/>
    </contour>
  </outline>
  <guideline angle="90" name="vertical" x="118" y="0"/>
  <guideline angle="0" name="horizontal" x="0" y="532"/>
  <guideline angle="90" name="vertical" x="503" y="0"/>
  <guideline angle="0" name="horizontal" x="0" y="532"/>
  <guideline angle="90" name="vertical" x="118" y="0"/>
  <guideline angle="0" name="horizontal" x="0" y="532"/>
</glyph>
<glyph name="zero.tosf" format="2">
  <advance width="524"/>
  <outline>
    <contour>
      <point x="54" y="216" type="curve" smooth="yes"/>
      <point x="54" y="322" type="line" smooth="yes"/>
      <point x="54" y="462.991"/>
      <point x="118.145" y="544"/>
      <point x="264" y="544" type="curve" smooth="yes"/>
      <point x="410.198" y="544"/>
      <point x="475" y="463.728"/>
      <point x="475" y="322" type="curve" smooth="yes"/>
      <point x="475" y="216" type="line" smooth="yes"/>
      <point x="475" y="73.7611"/>
      <point x="412.323" y="-10"/>
      <point x="264" y="-10" type="curve" smooth="yes"/>
      <point x="116.037" y="-10"/>
      <point x="54" y="74.51"/>
    </contour>
    <contour>
      <point x="341" y="238" type="curve" smooth="yes"/>
      <point x="341" y="295" type="line" smooth="yes"/>
      <point x="341" y="350.402"/>
      <point x="335.331" y="416"/>
      <point x="264" y="416" type="curve" smooth="yes"/>
      <point x="192.669" y="416"/>
      <point x="187" y="350.402"/>
      <point x="187" y="295" type="curve" smooth="yes"/>
      <point x="187" y="238" type="line" smooth="yes"/>
      <point x="187" y="182.598"/>
      <point x="192.669" y="117"/>
      <point x="264" y="117" type="curve" smooth="yes"/>
      <point x="335.331" y="117"/>
      <point x="341" y="182.598"/>
    </contour>
  </outline>
</glyph>
